<svg xmlns="http://www.w3.org/2000/svg"  viewBox="0 0 48 48" width="48px" height="48px"><path d="M 25 2 C 21.704135 2 19 4.7041348 19 8 L 12.5 8 C 10.585045 8 9 9.5850452 9 11.5 L 9 18 C 5.7041348 18 3 20.704135 3 24 C 3 27.295865 5.7041348 30 9 30 L 9 36.5 C 9 38.414955 10.585045 40 12.5 40 L 19 40 C 19 43.295865 21.704135 46 25 46 C 28.295865 46 31 43.295865 31 40 L 37.5 40 C 39.414955 40 41 38.414955 41 36.5 L 41 28.5 A 1.50015 1.50015 0 0 0 39.5 27 L 37 27 C 35.325865 27 34 25.674135 34 24 C 34 22.325865 35.325865 21 37 21 L 39.5 21 A 1.50015 1.50015 0 0 0 41 19.5 L 41 11.5 C 41 9.5850452 39.414955 8 37.5 8 L 31 8 C 31 4.7041348 28.295865 2 25 2 z M 25 5 C 26.674135 5 28 6.3258652 28 8 L 28 9.5 A 1.50015 1.50015 0 0 0 29.5 11 L 37.5 11 C 37.795045 11 38 11.204955 38 11.5 L 38 18 L 37 18 C 33.704135 18 31 20.704135 31 24 C 31 27.295865 33.704135 30 37 30 L 38 30 L 38 36.5 C 38 36.795045 37.795045 37 37.5 37 L 29.5 37 A 1.50015 1.50015 0 0 0 28 38.5 L 28 40 C 28 41.674135 26.674135 43 25 43 C 23.325865 43 22 41.674135 22 40 L 22 38.5 A 1.50015 1.50015 0 0 0 20.5 37 L 12.5 37 C 12.204955 37 12 36.795045 12 36.5 L 12 28.5 A 1.50015 1.50015 0 0 0 10.5 27 L 9 27 C 7.3258652 27 6 25.674135 6 24 C 6 22.325865 7.3258652 21 9 21 L 10.5 21 A 1.50015 1.50015 0 0 0 12 19.5 L 12 11.5 C 12 11.204955 12.204955 11 12.5 11 L 20.5 11 A 1.50015 1.50015 0 0 0 22 9.5 L 22 8 C 22 6.3258652 23.325865 5 25 5 z"/></svg>