<svg xmlns="http://www.w3.org/2000/svg"  viewBox="0 0 48 48" width="48px" height="48px"><path d="M 13.5 8 L 13.5 8.0136719 C 7.7294513 8.0185008 3 12.719515 3 18.5 L 3 35.5 C 3 37.967501 5.0324991 40 7.5 40 L 22.5 40 L 40.5 40 C 42.967501 40 45 37.967501 45 35.5 L 45 18.5 C 45 12.718499 40.281501 8 34.5 8 L 13.5 8 z M 20.738281 11 L 34.5 11 C 38.660499 11 42 14.339501 42 18.5 L 42 35.5 C 42 36.346499 41.346499 37 40.5 37 L 24 37 L 24 18.808594 C 24 15.80203 22.75998 13.000477 20.738281 11 z M 13.1875 11.005859 C 13.455659 10.995223 13.72685 10.997834 14.001953 11.015625 C 17.965329 11.272449 21 14.769079 21 18.808594 L 21 37 L 7.5 37 C 6.6535009 37 6 36.346499 6 35.5 L 6 18.5 C 6 14.444291 9.1651096 11.165406 13.1875 11.005859 z M 13.5 18 A 2.5 2.5 0 0 0 13.5 23 A 2.5 2.5 0 0 0 13.5 18 z M 28.5 19 A 1.50015 1.50015 0 1 0 28.5 22 L 36 22 L 36 24.5 A 1.50015 1.50015 0 1 0 39 24.5 L 39 20.5 A 1.50015 1.50015 0 0 0 37.5 19 L 28.5 19 z"/></svg>